<svg width="28" height="27" viewBox="0 0 28 27" fill="none" xmlns="http://www.w3.org/2000/svg">
<path d="M21.1448 26.3314C20.7765 26.331 20.4167 26.2208 20.1115 26.0147L13.8948 21.848C13.8642 21.8269 13.8278 21.8156 13.7906 21.8156C13.7534 21.8156 13.7171 21.8269 13.6865 21.848L7.46979 26.0147C7.15762 26.2232 6.78942 26.3317 6.4141 26.3259C6.03878 26.3202 5.67409 26.2004 5.36846 25.9825C5.06283 25.7645 4.83071 25.4588 4.70295 25.1059C4.57518 24.7529 4.5578 24.3694 4.65312 24.0064L6.69479 16.8064C6.70444 16.7702 6.70327 16.7319 6.69142 16.6964C6.67957 16.6608 6.65757 16.6295 6.62812 16.6064L0.74479 11.9814C0.435071 11.7506 0.205329 11.4288 0.0877766 11.0609C-0.029776 10.693 -0.0292442 10.2975 0.0892976 9.92997C0.207839 9.5624 0.438447 9.24114 0.748784 9.01125C1.05912 8.78135 1.43363 8.65435 1.81979 8.64804L9.31979 8.36471C9.35667 8.36216 9.39202 8.34901 9.42159 8.32683C9.45116 8.30465 9.47369 8.2744 9.48646 8.23971L12.0698 1.21471C12.2 0.858576 12.4365 0.551058 12.7473 0.33379C13.0581 0.116522 13.4281 0 13.8073 0C14.1865 0 14.5565 0.116522 14.8673 0.33379C15.1781 0.551058 15.4146 0.858576 15.5448 1.21471L18.1281 8.23971C18.1409 8.2744 18.1634 8.30465 18.193 8.32683C18.2226 8.34901 18.2579 8.36216 18.2948 8.36471L25.7948 8.64804C26.181 8.65435 26.5555 8.78135 26.8658 9.01125C27.1761 9.24114 27.4067 9.5624 27.5253 9.92997C27.6438 10.2975 27.6444 10.693 27.5268 11.0609C27.4093 11.4288 27.1795 11.7506 26.8698 11.9814L20.9865 16.6064C20.9561 16.6288 20.9334 16.66 20.9215 16.6958C20.9096 16.7316 20.909 16.7702 20.9198 16.8064L22.9615 24.0064C23.0331 24.2825 23.0402 24.5715 22.9822 24.8509C22.9242 25.1302 22.8027 25.3925 22.627 25.6173C22.4514 25.8421 22.2263 26.0235 21.9692 26.1473C21.7122 26.2711 21.4301 26.3341 21.1448 26.3314ZM13.7948 20.148C14.1638 20.1593 14.5209 20.2813 14.8198 20.498L21.0365 24.6647C21.068 24.6887 21.1064 24.7018 21.1459 24.7021C21.1855 24.7024 21.2241 24.6899 21.256 24.6665C21.2879 24.643 21.3113 24.6099 21.3228 24.572C21.3343 24.5342 21.3333 24.4936 21.3198 24.4564L19.2781 17.2564C19.1777 16.9032 19.1851 16.528 19.2994 16.1791C19.4137 15.8301 19.6298 15.5233 19.9198 15.298L25.8031 10.673C25.8352 10.6505 25.8592 10.6183 25.8717 10.5811C25.8841 10.5439 25.8842 10.5037 25.8721 10.4664C25.86 10.4291 25.8362 10.3966 25.8043 10.3738C25.7724 10.351 25.734 10.3391 25.6948 10.3397L18.1948 10.0564C17.8276 10.0421 17.4729 9.91869 17.1761 9.702C16.8792 9.48531 16.6537 9.18512 16.5281 8.83971L13.9448 1.81471C13.9331 1.77741 13.9099 1.74481 13.8784 1.72166C13.8469 1.69851 13.8089 1.68602 13.7698 1.68602C13.7307 1.68602 13.6927 1.69851 13.6612 1.72166C13.6297 1.74481 13.6064 1.77741 13.5948 1.81471L11.0365 8.83138C10.9109 9.17679 10.6853 9.47698 10.3885 9.69367C10.0917 9.91036 9.73703 10.0337 9.36979 10.048L1.86979 10.3314C1.83058 10.3307 1.79219 10.3427 1.76028 10.3655C1.72836 10.3883 1.7046 10.4207 1.69248 10.458C1.68035 10.4953 1.68051 10.5355 1.69293 10.5727C1.70534 10.6099 1.72936 10.6422 1.76146 10.6647L7.65312 15.298C7.94224 15.524 8.15762 15.8309 8.27188 16.1796C8.38614 16.5283 8.39412 16.9031 8.29479 17.2564L6.26146 24.4564C6.24932 24.4924 6.24926 24.5315 6.26129 24.5675C6.27332 24.6036 6.29678 24.6348 6.32812 24.6564C6.35831 24.6822 6.39673 24.6964 6.43646 24.6964C6.47618 24.6964 6.5146 24.6822 6.54479 24.6564L12.7615 20.4897C13.0653 20.2882 13.4219 20.1809 13.7865 20.1814L13.7948 20.148Z" fill="white"/>
</svg>
